Coordinates
version=1
nRows=54
nColumns=12
inDegrees=yes

Units are S.I. units (second, meters, Newtons, ...)
Angles are in degrees

endheader
time	SC_y	SC_z	SC_x	AC_y	AC_z	AC_x	GH_y	GH_z	GH_yy	EL_x	PS_y
       0.0              -53.24         0.1789           33.8           49.8         -16.71         -13.95         -22.61         -2.243          24.58          14.02           5.48
    0.0193              -53.24         0.1803           33.8           49.8         -16.71         -13.95         -22.62          -2.23          24.59          14.04          5.486
    0.0386              -53.23         0.1818           33.8           49.8         -16.71         -13.95         -22.63         -2.216           24.6          14.06          5.492
    0.0579              -53.23         0.1834           33.8           49.8         -16.71         -13.95         -22.64         -2.201          24.61          14.07          5.498
    0.0772              -53.22         0.1851           33.8           49.8          -16.7         -13.95         -22.66         -2.186          24.63          14.09          5.505
   0.09649              -53.22         0.1868          33.79           49.8          -16.7         -13.95         -22.67         -2.169          24.64          14.11          5.512
    0.1158              -53.21         0.1888          33.79           49.8          -16.7         -13.95         -22.69         -2.151          24.65          14.14          5.519
    0.1351              -53.21         0.1908          33.79          49.81          -16.7         -13.95         -22.71         -2.132          24.67          14.16          5.527
    0.1544               -53.2          0.193          33.79          49.81         -16.69         -13.95         -22.72         -2.112          24.68          14.19          5.536
    0.1737               -53.2         0.1954          33.79          49.81         -16.69         -13.95         -22.74          -2.09           24.7          14.21          5.546
     0.193              -53.19         0.1979          33.78          49.81         -16.69         -13.95         -22.76         -2.067          24.72          14.24          5.556
    0.2123              -53.18         0.2006          33.78          49.81         -16.68         -13.95         -22.79         -2.042          24.73          14.27          5.566
    0.2316              -53.18         0.2035          33.78          49.81         -16.68         -13.95         -22.81         -2.015          24.75          14.31          5.578
    0.2509              -53.17         0.2067          33.78          49.81         -16.67         -13.95         -22.84         -1.986          24.78          14.34          5.591
    0.2702              -53.16         0.2101          33.77          49.81         -16.67         -13.95         -22.87         -1.954           24.8          14.38          5.604
    0.2895              -53.15         0.2139          33.77          49.82         -16.66         -13.95          -22.9          -1.92          24.83          14.42          5.619
    0.3088              -53.14         0.2179          33.76          49.82         -16.66         -13.95         -22.93         -1.882          24.85          14.47          5.635
    0.3281              -53.13         0.2223          33.76          49.82         -16.65         -13.95         -22.97         -1.842          24.89          14.52          5.653
    0.3474              -53.12         0.2271          33.76          49.82         -16.64         -13.95         -23.01         -1.797          24.92          14.58          5.672
    0.3667               -53.1         0.2324          33.75          49.82         -16.63         -13.95         -23.05         -1.748          24.96          14.64          5.693
     0.386              -53.09         0.2381          33.75          49.83         -16.63         -13.95          -23.1         -1.695           25.0           14.7          5.716
    0.4053              -53.07         0.2445          33.74          49.83         -16.62         -13.94         -23.15         -1.636          25.04          14.78          5.741
    0.4246              -53.06         0.2515          33.73          49.83         -16.61         -13.94         -23.21         -1.571          25.09          14.86          5.769
    0.4439              -53.04         0.2593          33.73          49.84          -16.6         -13.94         -23.27         -1.499          25.14          14.95            5.8
    0.4632              -53.02          0.268          33.72          49.84         -16.58         -13.94         -23.34          -1.42           25.2          15.05          5.834
    0.4825              -52.99         0.2776          33.71          49.85         -16.57         -13.94         -23.42          -1.33          25.27          15.16          5.873
    0.5018              -52.96         0.2884           33.7          49.85         -16.55         -13.94         -23.51          -1.23          25.35          15.28          5.916
    0.5211              -52.93         0.3006          33.69          49.86         -16.53         -13.94         -23.61         -1.118          25.43          15.42          5.964
    0.5404               -52.9         0.3144          33.67          49.86         -16.51         -13.94         -23.73        -0.9909          25.53          15.58          6.019
    0.5597              -52.86           0.33          33.66          49.87         -16.49         -13.94         -23.85        -0.8466          25.64          15.76          6.081
     0.579              -52.82         0.3478          33.64          49.88         -16.47         -13.93          -24.0         -0.682          25.76          15.96          6.152
    0.5983              -52.76         0.3682          33.62          49.89         -16.44         -13.93         -24.17        -0.4931           25.9           16.2          6.233
    0.6176               -52.7         0.3918           33.6           49.9          -16.4         -13.93         -24.36        -0.2749          26.07          16.47          6.327
    0.6369              -52.64         0.4193          33.58          49.91         -16.36         -13.93         -24.59       -0.02145          26.26          16.78          6.436
    0.6562              -52.56         0.4513          33.55          49.93         -16.31         -13.92         -24.86         0.2751          26.49          17.15          6.564
    0.6755              -52.46         0.4892          33.51          49.94         -16.26         -13.92         -25.17         0.6247          26.75          17.58          6.714
    0.6948              -52.35         0.5341          33.47          49.96         -16.19         -13.91         -25.54           1.04          27.06           18.1          6.893
    0.7141              -52.21          0.588          33.42          49.99         -16.11         -13.91         -25.98          1.538          27.44          18.72          7.107
    0.7334              -52.05         0.6532          33.36          50.02         -16.02          -13.9         -26.52          2.141           27.9          19.47          7.366
    0.7527              -51.85         0.7329          33.28          50.05          -15.9         -13.89         -27.18          2.877          28.45          20.38          7.683
     0.772               -51.6         0.8312          33.19           50.1         -15.76         -13.88         -27.99          3.785          29.14          21.51          8.074
    0.7913               -51.3         0.9537          33.07          50.16         -15.58         -13.87          -29.0          4.918          29.99          22.92          8.562
    0.8106              -50.91          1.108          32.93          50.23         -15.35         -13.85         -30.27          6.345          31.07          24.69          9.176
    0.8299              -50.42          1.304          32.74          50.32         -15.07         -13.83         -31.89          8.159          32.44          26.94          9.956
    0.8491              -49.78          1.556          32.51          50.43          -14.7         -13.81         -33.97          10.48           34.2          29.83          10.96
    0.8684              -48.98          1.878          32.21          50.58         -14.23         -13.77         -36.63          13.46          36.45          33.53          12.24
    0.8877              -47.94           2.29          31.82          50.77         -13.63         -13.73         -40.03          17.27          39.33          38.25          13.88
     0.907              -46.64          2.808          31.33          51.01         -12.87         -13.68          -44.3          22.05          42.94           44.2          15.94
    0.9263              -45.06          3.439          30.74           51.3         -11.95         -13.61          -49.5          27.88          47.35          51.44          18.45
    0.9456              -43.22           4.17          30.05          51.63         -10.88         -13.53         -55.54          34.64          52.46          59.84          21.35
    0.9649              -41.24          4.962          29.31          51.99         -9.721         -13.45         -62.08          41.96          57.99          68.93           24.5
    0.9842              -39.25          5.755          28.57          52.36         -8.563         -13.37         -68.61          49.28          63.52          78.02          27.65
     1.004              -37.42          6.486          27.88          52.69         -7.494         -13.29         -74.65          56.04          68.63          86.42          30.56
     1.023              -35.83          7.117          27.29          52.98         -6.572         -13.22         -79.85          61.87          73.04          93.66          33.07
